<svg id="Layer_2" data-name="Layer 2" xmlns="http://www.w3.org/2000/svg" viewBox="0 0 606.36 568.89"><defs><style>.cls-1,.cls-2{stroke:#000;stroke-miterlimit:10;}.cls-2{fill:#fff;}</style></defs><title>clips_icon</title><rect class="cls-1" x="17.79" y="194.2" width="587.53" height="374.18"/><polygon class="cls-2" points="217.78 318.75 217.78 479.58 434.41 399.17 217.78 318.75"/><rect class="cls-2" x="49.28" y="123.74" width="587.53" height="91.9" transform="translate(-69.62 -9.47) rotate(-10.09)"/><rect class="cls-1" x="88.2" y="164.85" width="47.7" height="91.9" transform="translate(-80.4 -49.31) rotate(-10.09)"/><rect class="cls-1" x="158.81" y="152.28" width="47.7" height="91.9" transform="translate(-77.1 -37.13) rotate(-10.09)"/><rect class="cls-1" x="231.23" y="139.4" width="47.7" height="91.9" transform="translate(-73.72 -24.64) rotate(-10.09)"/><rect class="cls-1" x="303.38" y="126.55" width="47.7" height="91.9" transform="translate(-70.36 -12.2) rotate(-10.09)"/><rect class="cls-1" x="370.83" y="114.55" width="47.7" height="91.9" transform="translate(-67.21 -0.56) rotate(-10.09)"/><rect class="cls-1" x="441.44" y="101.98" width="47.7" height="91.9" transform="translate(-63.91 11.61) rotate(-10.09)"/><rect class="cls-1" x="513.86" y="89.09" width="47.7" height="91.9" transform="translate(-60.54 24.1) rotate(-10.09)"/><rect class="cls-1" x="586.01" y="76.25" width="47.7" height="91.9" transform="translate(-57.17 36.55) rotate(-10.09)"/><rect class="cls-2" x="17.24" y="194.51" width="587.53" height="58.45"/><rect class="cls-1" x="52.54" y="194.51" width="47.7" height="58.45"/><rect class="cls-1" x="124.25" y="194.51" width="47.7" height="58.45"/><rect class="cls-1" x="197.81" y="194.51" width="47.7" height="58.45"/><rect class="cls-1" x="271.09" y="194.51" width="47.7" height="58.45"/><rect class="cls-1" x="339.61" y="194.51" width="47.7" height="58.45"/><rect class="cls-1" x="411.33" y="194.51" width="47.7" height="58.45"/><rect class="cls-1" x="484.88" y="194.51" width="47.7" height="58.45"/><rect class="cls-1" x="558.17" y="194.51" width="47.7" height="58.45"/></svg>