<svg id="Layer_1" data-name="Layer 1" xmlns="http://www.w3.org/2000/svg" viewBox="0 0 1333.83 1246.02"><defs><style>.cls-1{fill:#2e3192;stroke-width:7px;}.cls-1,.cls-4,.cls-5{stroke:#000;}.cls-1,.cls-3,.cls-4,.cls-5{stroke-miterlimit:10;}.cls-2{fill:#fcee21;}.cls-3{fill:#42210b;stroke:#603813;stroke-width:5px;}.cls-4{fill:#fff;}.cls-5{fill:#e91300;}</style></defs><title>movie_icon</title><rect class="cls-1" x="3.5" y="3.5" width="1326.83" height="1239.02" rx="114.84"/><g id="Layer_3" data-name="Layer 3"><g id="Popcorn"><circle class="cls-2" cx="348.46" cy="462.04" r="54.72"/><circle class="cls-2" cx="403.19" cy="407.32" r="54.72"/><circle class="cls-2" cx="420.32" cy="462.04" r="54.72"/><circle class="cls-3" cx="368.99" cy="451.7" r="22.19"/><circle class="cls-3" cx="391.18" cy="429.51" r="22.19"/><circle class="cls-3" cx="398.13" cy="451.7" r="22.19"/><circle class="cls-2" cx="470.01" cy="495.6" r="54.72"/><circle class="cls-2" cx="547.23" cy="490.54" r="54.72"/><circle class="cls-2" cx="524.03" cy="542.98" r="54.72"/><circle class="cls-3" cx="492.26" cy="501.36" r="22.19"/><circle class="cls-3" cx="523.57" cy="499.31" r="22.19"/><circle class="cls-3" cx="514.16" cy="520.57" r="22.19"/><circle class="cls-2" cx="405.73" cy="334.16" r="54.72"/><circle class="cls-2" cx="460.45" cy="279.44" r="54.72"/><circle class="cls-2" cx="477.58" cy="334.16" r="54.72"/><circle class="cls-3" cx="426.25" cy="323.82" r="22.19"/><circle class="cls-3" cx="448.44" cy="301.63" r="22.19"/><circle class="cls-3" cx="455.39" cy="323.82" r="22.19"/><circle class="cls-2" cx="568.17" cy="291.27" r="54.72"/><circle class="cls-2" cx="529.77" cy="224.08" r="54.72"/><circle class="cls-2" cx="587.07" cy="221.95" r="54.72"/><circle class="cls-3" cx="563.59" cy="268.75" r="22.19"/><circle class="cls-3" cx="548.02" cy="241.5" r="22.19"/><circle class="cls-3" cx="571.26" cy="240.64" r="22.19"/><circle class="cls-2" cx="730.54" cy="237.9" r="54.72"/><circle class="cls-2" cx="683.84" cy="299.61" r="54.72"/><circle class="cls-2" cx="659.37" cy="247.75" r="54.72"/><circle class="cls-3" cx="711.63" cy="250.95" r="22.19"/><circle class="cls-3" cx="692.69" cy="275.98" r="22.19"/><circle class="cls-3" cx="682.76" cy="254.95" r="22.19"/><circle class="cls-2" cx="788.91" cy="311.4" r="54.72"/><circle class="cls-2" cx="826.93" cy="378.8" r="54.72"/><circle class="cls-2" cx="769.62" cy="380.62" r="54.72"/><circle class="cls-3" cx="793.36" cy="333.95" r="22.19"/><circle class="cls-3" cx="808.78" cy="361.28" r="22.19"/><circle class="cls-3" cx="785.54" cy="362.01" r="22.19"/><circle class="cls-2" cx="870.27" cy="456.87" r="54.72"/><circle class="cls-2" cx="925" cy="402.15" r="54.72"/><circle class="cls-2" cx="942.13" cy="456.87" r="54.72"/><circle class="cls-3" cx="890.8" cy="446.53" r="22.19"/><circle class="cls-3" cx="912.99" cy="424.34" r="22.19"/><circle class="cls-3" cx="919.94" cy="446.53" r="22.19"/><circle class="cls-2" cx="1062.06" cy="484.24" r="54.72"/><circle class="cls-2" cx="1035.41" cy="556.9" r="54.72"/><circle class="cls-2" cx="996.86" cy="514.44" r="54.72"/><circle class="cls-3" cx="1047.78" cy="502.25" r="22.19"/><circle class="cls-3" cx="1036.97" cy="531.71" r="22.19"/><circle class="cls-3" cx="1021.34" cy="514.5" r="22.19"/><circle class="cls-2" cx="337.08" cy="607.29" r="54.72"/><circle class="cls-2" cx="323.69" cy="531.07" r="54.72"/><circle class="cls-2" cx="378.33" cy="548.45" r="54.72"/><circle class="cls-3" cx="340.4" cy="584.55" r="22.19"/><circle class="cls-3" cx="334.97" cy="553.64" r="22.19"/><circle class="cls-3" cx="357.12" cy="560.69" r="22.19"/><circle class="cls-2" cx="787.57" cy="478.12" r="54.72"/><circle class="cls-2" cx="760.92" cy="550.77" r="54.72"/><circle class="cls-2" cx="722.37" cy="508.32" r="54.72"/><circle class="cls-3" cx="773.29" cy="496.13" r="22.19"/><circle class="cls-3" cx="762.49" cy="525.59" r="22.19"/><circle class="cls-3" cx="746.86" cy="508.37" r="22.19"/><circle class="cls-2" cx="853.22" cy="557.16" r="54.72"/><circle class="cls-2" cx="930.61" cy="558.12" r="54.72"/><circle class="cls-2" cx="903.4" cy="608.59" r="54.72"/><circle class="cls-3" cx="874.96" cy="564.63" r="22.19"/><circle class="cls-3" cx="906.34" cy="565.02" r="22.19"/><circle class="cls-3" cx="895.31" cy="585.49" r="22.19"/><circle class="cls-2" cx="641.23" cy="477.28" r="54.72"/><circle class="cls-2" cx="662.77" cy="551.61" r="54.72"/><circle class="cls-2" cx="606.57" cy="540.23" r="54.72"/><circle class="cls-3" cx="640.39" cy="500.25" r="22.19"/><circle class="cls-3" cx="649.12" cy="530.39" r="22.19"/><circle class="cls-3" cx="626.33" cy="525.77" r="22.19"/><circle class="cls-2" cx="644.75" cy="349.5" r="54.72"/><circle class="cls-2" cx="695.53" cy="407.9" r="54.72"/><circle class="cls-2" cx="639.75" cy="421.18" r="54.72"/><circle class="cls-3" cx="653.64" cy="370.69" r="22.19"/><circle class="cls-3" cx="674.23" cy="394.38" r="22.19"/><circle class="cls-3" cx="651.61" cy="399.76" r="22.19"/><circle class="cls-2" cx="574.34" cy="411.72" r="54.72"/><circle class="cls-2" cx="498.02" cy="424.52" r="54.72"/><circle class="cls-2" cx="515.83" cy="370.01" r="54.72"/><circle class="cls-3" cx="551.62" cy="408.22" r="22.19"/><circle class="cls-3" cx="520.67" cy="413.41" r="22.19"/><circle class="cls-3" cx="527.9" cy="391.31" r="22.19"/></g></g><polygon class="cls-4" points="988.65 1198.62 378.87 1198.62 261.87 585.99 1085.65 583.99 988.65 1198.62"/><polygon class="cls-5" points="714.6 1197.74 629.2 1197.74 612.81 583.1 728.19 583.1 714.6 1197.74"/><polygon class="cls-5" points="914.38 1197.74 828.97 1197.74 812.59 583.1 927.96 583.1 914.38 1197.74"/><polygon class="cls-5" points="519.14 1198.62 433.74 1198.62 417.35 583.99 532.73 583.99 519.14 1198.62"/><polyline class="cls-5" points="263 584.55 380.37 584.55 377.79 1199.18"/><polyline class="cls-5" points="988.39 1198.62 969.01 583.99 1084.38 583.99"/></svg>