<svg id="Layer_2" data-name="Layer 2" xmlns="http://www.w3.org/2000/svg" viewBox="0 0 551.78 637.95"><defs><style>.cls-1,.cls-2,.cls-3{stroke:#000;stroke-miterlimit:10;}.cls-2{fill:#636363;}.cls-3{fill:#fff;}</style></defs><title>trivia_icon</title><path class="cls-1" d="M282.51,221.85H182.34s-.91-98.37,80.32-150.71,185.91-18,185.91-18S537,82.87,558.67,186.66c0,0,2.7,105.59-62.27,146.2s-75.81,99.27-75.81,99.27L417,486.28H306.88l4.51-65S334,327.44,381.78,297.66s65-65.88,65-65.88,36.1-81.22-69.49-89.34C377.27,142.44,287.93,131.61,282.51,221.85Z" transform="translate(-89.76 -41.56)"/><circle class="cls-1" cx="275.42" cy="561.37" r="76.08"/><path class="cls-2" d="M134.11,440.48H90.26s-.39-43.06,35.16-66,81.37-7.9,81.37-7.9,38.71,13,48.19,58.46c0,0,1.19,46.22-27.25,64s-33.18,43.45-33.18,43.45L193,556.21H144.78l2-28.44s9.88-41.08,30.81-54.11S206,444.82,206,444.82s15.8-35.55-30.41-39.11C175.59,405.71,136.48,401,134.11,440.48Z" transform="translate(-89.76 -41.56)"/><circle class="cls-2" cx="80.53" cy="565.71" r="33.3"/><path class="cls-3" d="M520.17,442.91H476.32s-.4-43.06,35.16-66,81.37-7.9,81.37-7.9,38.71,13,48.19,58.46c0,0,1.19,46.22-27.26,64S580.6,535,580.6,535L579,558.65H530.83l2-28.44s9.87-41.08,30.81-54.12,28.44-28.83,28.44-28.83,15.8-35.56-30.42-39.11C561.64,408.15,522.54,403.41,520.17,442.91Z" transform="translate(-89.76 -41.56)"/><circle class="cls-3" cx="466.59" cy="568.15" r="33.3"/></svg>